<svg xmlns="http://www.w3.org/2000/svg" viewBox="0 0 600 238" width="900" height="357"
     font-family="Arial, sans-serif">
  <defs>
    <marker id="arr" markerWidth="6" markerHeight="5" refX="5.5" refY="2.5" orient="auto">
      <polygon points="0,0 6,2.5 0,5" fill="#555555"/>
    </marker>
  </defs>

  <!-- ── Module container ── -->
  <rect x="1" y="1" width="598" height="236" rx="5" fill="#eff7f7" stroke="#1b5e5e" stroke-width="1.5"/>

  <!-- ── Header bar ── -->
  <rect x="1" y="1" width="598" height="24" rx="5" fill="#336b5b"/>
  <rect x="1" y="13" width="598" height="12" fill="#336b5b"/>
  <text x="299" y="16.5" text-anchor="middle" font-size="12" font-weight="bold" fill="white">Module 2 · AmpliconPIP</text>

  <!-- ── Step 1 label ── -->
  <text x="14" y="37" font-size="8" font-weight="bold" fill="#336b5b">☑  Step 1 · Platform Detection &amp; Distribution</text>

  <!-- ── Vertical distribution spine ── -->
  <line x1="17" y1="55" x2="17" y2="214" stroke="#336b5b" stroke-width="1.5"/>
  <line x1="17" y1="68"  x2="22" y2="68"  stroke="#336b5b" stroke-width="1.5"/>
  <line x1="17" y1="110" x2="22" y2="110" stroke="#336b5b" stroke-width="1.5"/>
  <line x1="17" y1="152" x2="22" y2="152" stroke="#336b5b" stroke-width="1.5"/>
  <line x1="17" y1="200" x2="22" y2="200" stroke="#336b5b" stroke-width="1.5"/>


  <!-- ════════════════════════════════════════════════════════════ -->
  <!-- ROW 1 · ILLUMINA  (y=68)                                    -->
  <!-- ════════════════════════════════════════════════════════════ -->
  <rect x="22"  y="55" width="50" height="26" rx="2" fill="white" stroke="#7d9a9e" stroke-width="0.8"/>
  <text x="47"  y="71" text-anchor="middle" font-size="8" font-weight="bold" fill="#1b5e5e">Illumina</text>

  <line x1="72"  y1="68" x2="80"  y2="68" stroke="#555" stroke-width="0.75" marker-end="url(#arr)"/>

  <rect x="80"  y="55" width="62" height="26" rx="2" fill="white" stroke="#b0cdd0" stroke-width="0.8"/>
  <text x="111" y="65" text-anchor="middle" font-size="7.5" fill="#336b5b">SRA/GSA</text>
  <text x="111" y="76" text-anchor="middle" font-size="7.5" fill="#336b5b">Download</text>

  <line x1="142" y1="68" x2="150" y2="68" stroke="#555" stroke-width="0.75" marker-end="url(#arr)"/>

  <rect x="150" y="55" width="64" height="26" rx="2" fill="white" stroke="#b0cdd0" stroke-width="0.8"/>
  <text x="182" y="65" text-anchor="middle" font-size="7.5" fill="#336b5b">fastp QC</text>
  <text x="182" y="76" text-anchor="middle" font-size="6.5" fill="#336b5b">+ Primer Detect</text>

  <line x1="214" y1="68" x2="222" y2="68" stroke="#555" stroke-width="0.75" marker-end="url(#arr)"/>

  <rect x="222" y="55" width="56" height="26" rx="2" fill="white" stroke="#b0cdd0" stroke-width="0.8"/>
  <text x="250" y="65" text-anchor="middle" font-size="7.5" fill="#336b5b">Quality</text>
  <text x="250" y="76" text-anchor="middle" font-size="7.5" fill="#336b5b">Check</text>

  <line x1="278" y1="68" x2="286" y2="68" stroke="#555" stroke-width="0.75" marker-end="url(#arr)"/>

  <rect x="286" y="53" width="76" height="30" rx="2" fill="white" stroke="#b0cdd0" stroke-width="0.8"/>
  <text x="324" y="63" text-anchor="middle" font-size="7.5" fill="#336b5b">DADA2 Denoise</text>
  <text x="324" y="73" text-anchor="middle" font-size="6"   fill="#888888">*(DegradedQ</text>
  <text x="324" y="81" text-anchor="middle" font-size="6"   fill="#888888">→ UNOISE3)</text>

  <line x1="362" y1="68" x2="511" y2="68" stroke="#555" stroke-width="0.75"/>


  <!-- ════════════════════════════════════════════════════════════ -->
  <!-- ROW 2 · PACBIO  (y=110)                                     -->
  <!-- ════════════════════════════════════════════════════════════ -->
  <rect x="22"  y="97" width="50" height="26" rx="2" fill="white" stroke="#7d9a9e" stroke-width="0.8"/>
  <text x="47"  y="114" text-anchor="middle" font-size="8" font-weight="bold" fill="#1b5e5e">PacBio</text>

  <line x1="72"  y1="110" x2="80"  y2="110" stroke="#555" stroke-width="0.75" marker-end="url(#arr)"/>

  <rect x="80"  y="97" width="62" height="26" rx="2" fill="white" stroke="#b0cdd0" stroke-width="0.8"/>
  <text x="111" y="107" text-anchor="middle" font-size="7.5" fill="#336b5b">SRA/GSA</text>
  <text x="111" y="118" text-anchor="middle" font-size="7.5" fill="#336b5b">Download</text>

  <line x1="142" y1="110" x2="150" y2="110" stroke="#555" stroke-width="0.75" marker-end="url(#arr)"/>

  <!-- PacBio: no primer detection -->
  <rect x="150" y="97" width="64" height="26" rx="2" fill="white" stroke="#b0cdd0" stroke-width="0.8"/>
  <text x="182" y="113" text-anchor="middle" font-size="7.5" fill="#336b5b">fastp QC</text>

  <line x1="214" y1="110" x2="222" y2="110" stroke="#555" stroke-width="0.75" marker-end="url(#arr)"/>

  <rect x="222" y="97" width="68" height="26" rx="2" fill="white" stroke="#b0cdd0" stroke-width="0.8"/>
  <text x="256" y="107" text-anchor="middle" font-size="7.5" fill="#336b5b">DADA2</text>
  <text x="256" y="118" text-anchor="middle" font-size="7.5" fill="#336b5b">denoise-ccs</text>

  <line x1="290" y1="110" x2="298" y2="110" stroke="#555" stroke-width="0.75" marker-end="url(#arr)"/>

  <rect x="298" y="97" width="66" height="26" rx="2" fill="white" stroke="#b0cdd0" stroke-width="0.8"/>
  <text x="331" y="107" text-anchor="middle" font-size="7.5" fill="#336b5b">Extract Reads</text>
  <text x="331" y="118" text-anchor="middle" font-size="6.5" fill="#336b5b">(primer region)</text>

  <line x1="364" y1="110" x2="511" y2="110" stroke="#555" stroke-width="0.75"/>


  <!-- ════════════════════════════════════════════════════════════ -->
  <!-- ROW 3 · ION TORRENT  (y=152)                                -->
  <!-- ════════════════════════════════════════════════════════════ -->
  <rect x="22"  y="139" width="50" height="26" rx="2" fill="white" stroke="#7d9a9e" stroke-width="0.8"/>
  <text x="47"  y="149" text-anchor="middle" font-size="8" font-weight="bold" fill="#1b5e5e">Ion</text>
  <text x="47"  y="160" text-anchor="middle" font-size="8" font-weight="bold" fill="#1b5e5e">Torrent</text>

  <line x1="72"  y1="152" x2="80"  y2="152" stroke="#555" stroke-width="0.75" marker-end="url(#arr)"/>

  <rect x="80"  y="139" width="62" height="26" rx="2" fill="white" stroke="#b0cdd0" stroke-width="0.8"/>
  <text x="111" y="149" text-anchor="middle" font-size="7.5" fill="#336b5b">SRA/GSA</text>
  <text x="111" y="160" text-anchor="middle" font-size="7.5" fill="#336b5b">Download</text>

  <line x1="142" y1="152" x2="150" y2="152" stroke="#555" stroke-width="0.75" marker-end="url(#arr)"/>

  <rect x="150" y="139" width="64" height="26" rx="2" fill="white" stroke="#b0cdd0" stroke-width="0.8"/>
  <text x="182" y="149" text-anchor="middle" font-size="7.5" fill="#336b5b">fastp QC</text>
  <text x="182" y="160" text-anchor="middle" font-size="6.5" fill="#336b5b">+ Primer Detect</text>

  <line x1="214" y1="152" x2="222" y2="152" stroke="#555" stroke-width="0.75" marker-end="url(#arr)"/>

  <!-- Ion Torrent: DADA2 denoise-pyro (CORRECTED) -->
  <rect x="222" y="139" width="72" height="26" rx="2" fill="white" stroke="#b0cdd0" stroke-width="0.8"/>
  <text x="258" y="149" text-anchor="middle" font-size="7.5" fill="#336b5b">DADA2</text>
  <text x="258" y="160" text-anchor="middle" font-size="7.5" fill="#336b5b">denoise-pyro</text>

  <line x1="294" y1="152" x2="511" y2="152" stroke="#555" stroke-width="0.75"/>


  <!-- ════════════════════════════════════════════════════════════ -->
  <!-- ROW 4 · 454  (y=200)                                        -->
  <!-- ════════════════════════════════════════════════════════════ -->
  <rect x="22"  y="187" width="50" height="26" rx="2" fill="white" stroke="#7d9a9e" stroke-width="0.8"/>
  <text x="47"  y="204" text-anchor="middle" font-size="8" font-weight="bold" fill="#1b5e5e">454</text>

  <line x1="72"  y1="200" x2="80"  y2="200" stroke="#555" stroke-width="0.75" marker-end="url(#arr)"/>

  <rect x="80"  y="187" width="62" height="26" rx="2" fill="white" stroke="#b0cdd0" stroke-width="0.8"/>
  <text x="111" y="197" text-anchor="middle" font-size="7.5" fill="#336b5b">SRA/GSA</text>
  <text x="111" y="208" text-anchor="middle" font-size="7.5" fill="#336b5b">Download</text>

  <line x1="142" y1="200" x2="150" y2="200" stroke="#555" stroke-width="0.75" marker-end="url(#arr)"/>

  <rect x="150" y="187" width="64" height="26" rx="2" fill="white" stroke="#b0cdd0" stroke-width="0.8"/>
  <text x="182" y="197" text-anchor="middle" font-size="7.5" fill="#336b5b">fastp QC</text>
  <text x="182" y="208" text-anchor="middle" font-size="6.5" fill="#336b5b">+ Primer Detect</text>

  <line x1="214" y1="200" x2="222" y2="200" stroke="#555" stroke-width="0.75" marker-end="url(#arr)"/>

  <rect x="222" y="187" width="56" height="26" rx="2" fill="white" stroke="#b0cdd0" stroke-width="0.8"/>
  <text x="250" y="197" text-anchor="middle" font-size="7.5" fill="#336b5b">Dedupli-</text>
  <text x="250" y="208" text-anchor="middle" font-size="7.5" fill="#336b5b">cation</text>

  <line x1="278" y1="200" x2="286" y2="200" stroke="#555" stroke-width="0.75" marker-end="url(#arr)"/>

  <rect x="286" y="187" width="62" height="26" rx="2" fill="white" stroke="#b0cdd0" stroke-width="0.8"/>
  <text x="317" y="197" text-anchor="middle" font-size="7.5" fill="#336b5b">Chimera</text>
  <text x="317" y="208" text-anchor="middle" font-size="7.5" fill="#336b5b">Removal</text>

  <line x1="348" y1="200" x2="356" y2="200" stroke="#555" stroke-width="0.75" marker-end="url(#arr)"/>

  <rect x="356" y="187" width="64" height="26" rx="2" fill="white" stroke="#b0cdd0" stroke-width="0.8"/>
  <text x="388" y="197" text-anchor="middle" font-size="7.5" fill="#336b5b">Cluster OTUs</text>
  <text x="388" y="208" text-anchor="middle" font-size="7.5" fill="#336b5b">(97%)</text>

  <line x1="420" y1="200" x2="428" y2="200" stroke="#555" stroke-width="0.75" marker-end="url(#arr)"/>

  <rect x="428" y="187" width="66" height="26" rx="2" fill="white" stroke="#b0cdd0" stroke-width="0.8"/>
  <text x="461" y="197" text-anchor="middle" font-size="7.5" fill="#336b5b">Filter Low-Freq</text>
  <text x="461" y="208" text-anchor="middle" font-size="6.5" fill="#336b5b">OTUs (&lt;0.005%)</text>

  <line x1="494" y1="200" x2="511" y2="200" stroke="#555" stroke-width="0.75"/>


  <!-- ════════════════════════════════════════════════════════════ -->
  <!-- MERGE + QIIME2 IMPORT & OUTPUT                              -->
  <!-- ════════════════════════════════════════════════════════════ -->

  <!-- Vertical merge bar -->
  <line x1="511" y1="68"  x2="511" y2="200" stroke="#555" stroke-width="0.75"/>

  <!-- Arrow from merge to QIIME2 -->
  <line x1="511" y1="134" x2="519" y2="134" stroke="#555" stroke-width="0.75" marker-end="url(#arr)"/>

  <!-- QIIME2 Import & Output box -->
  <rect x="519" y="116" width="72" height="36" rx="3" fill="#fffff4" stroke="#c5ab60" stroke-width="1.2"/>
  <text x="555" y="129" text-anchor="middle" font-size="7.5" font-weight="bold" fill="#333">QIIME2 Import</text>
  <text x="555" y="140" text-anchor="middle" font-size="7.5" fill="#333">&amp; Output</text>
  <text x="555" y="150" text-anchor="middle" font-size="6.5" fill="#888">rep-seqs.qza · table.qza</text>

</svg>
